<?xml version="1.0" encoding="utf-8"?>
<svg xmlns="http://www.w3.org/2000/svg" height="256" width="256" viewBox="0 0 256 256">
  <g>
    <path id="path1" transform="rotate(0,128,128) translate(0,35.782854290099) scale(7.99974633067561,7.99974633067561)  " fill="#EA4234" d="M10.998368,22.949026L11.797754,22.991034 10.998283,22.951023z M17.419995,11.186981L18.581997,12.814983 11.641049,17.772804 11.643018,17.775679C13.132887,20.059933,13.00338,22.916651,12.99638,23.054018L11.797754,22.991034 11.997331,23.001021 10.998368,22.949026 10.998764,22.93969C11.006163,22.735838 11.070255,19.884661 9.4572079,18.225283 8.7317977,17.479824 7.8172688,17.085001 6.5715914,17.012682L6.4952497,17.009716 6.4373255,17.011879C5.2031331,17.082115 4.2702279,17.479384 3.5448179,18.225794 1.8797369,19.938873 2.0017424,22.922011 2.0037432,22.952013L0.005645752,23.055018C-0.0023546219,22.89801 -0.17036343,19.188837 2.1017475,16.841728 3.0922327,15.817119 4.3712211,15.21767 5.9145737,15.049281L5.9778852,15.043806 5.9770384,15.001461C6.1052947,14.999211,6.2319884,14.999504,6.3571115,15.002339L6.4986501,15.008497 6.6455736,15.002193C6.7705059,14.999453,6.8969808,14.99927,7.0249872,15.001644L7.0241361,15.044208 7.0889378,15.049835C8.5369134,15.208225,9.7492015,15.743772,10.711216,16.654263L10.855224,16.796774 10.419984,16.186989z M6.8260174,7.8349854C5.6650224,7.8349854 4.720027,8.7799865 4.720027,9.9419881 4.720027,11.10399 5.6650224,12.048991 6.8260174,12.048991 7.9870124,12.048991 8.9320083,11.10399 8.9320083,9.9419881 8.9320083,8.7799865 7.9870124,7.8349854 6.8260174,7.8349854z M22.001013,6.9999777L28.001013,6.9999777 28.001013,8.9999772 22.001013,8.9999772z M6.8260174,5.834983C9.0910075,5.834983 10.931999,7.6769854 10.931999,9.9419881 10.931999,12.206991 9.0910075,14.048993 6.8260174,14.048993 4.5610275,14.048993 2.7200356,12.206991 2.7200356,9.9419881 2.7200356,7.6769854 4.5610275,5.834983 6.8260174,5.834983z M19.001013,3.9999779L28.001013,3.9999779 28.001013,5.9999777 19.001013,5.9999777z M12.001013,0L32.001013,0 32.001013,14 21.001013,14 21.001013,12 30.001013,12 30.001013,1.9999999 14.001013,1.9999999 14.001013,11 12.001013,11z" />
  </g>
</svg>

